<svg width="162" height="116" viewBox="0 0 162 116" fill="none" xmlns="http://www.w3.org/2000/svg">
<ellipse cx="70" cy="101.5" rx="64" ry="14.5" fill="#7A9ACC" fill-opacity="0.5"/>
<rect x="31" y="44.5592" width="71.4284" height="53" rx="7" transform="rotate(-38.5964 31 44.5592)" fill="#ADB5BD"/>
<rect x="38.645" y="54.1375" width="71.4284" height="40.7447" transform="rotate(-38.5964 38.645 54.1375)" fill="#CED6DE"/>
<rect x="38" y="42.094" width="84" height="53" rx="7" transform="rotate(-24.6949 38 42.094)" fill="#E0E0E0"/>
<path d="M43.1138 53.2145L119.432 18.1205L130 41.5L60.1427 90.2469L43.1138 53.2145Z" fill="#D1D0D0"/>
<rect x="30" y="28" width="102" height="72" rx="11.9337" fill="#012966"/>
<rect x="90" y="51" width="54" height="27" rx="13.5" fill="#1658BF"/>
<circle cx="104.5" cy="64.5" r="9.5" fill="#012966" fill-opacity="0.5"/>
<rect x="101.028" y="15.1767" width="11.6181" height="6" rx="3" transform="rotate(-26.46 101.028 15.1767)" fill="#C4C4C4"/>
<rect x="76.2021" y="11.7888" width="12.0321" height="6" rx="3" transform="rotate(-39.5666 76.2021 11.7888)" fill="#CED6DE"/>
<path d="M20.9748 58.8729C20.9426 62.7245 20.4834 63.379 16.8728 64.7205C20.7245 64.7528 21.379 65.2119 22.7205 68.8225C22.7528 64.9709 23.2119 64.3164 26.8225 62.9749C22.9709 62.9426 22.3163 62.4835 20.9748 58.8729Z" fill="#012966"/>
<circle cx="31" cy="85" r="31" fill="#FA6E5A"/>
<path d="M30.5166 89.3914C28.3105 89.3914 26.5259 87.6726 26.5259 85.5139C26.5259 83.3551 28.3105 81.6226 30.5166 81.6226C32.7228 81.6226 34.4652 83.3551 34.4652 85.5139C34.4652 87.6726 32.7228 89.3914 30.5166 89.3914" fill="white"/>
<path opacity="0.4" d="M43.1914 88.7589C42.9244 88.3464 42.545 87.9339 42.0532 87.6727C41.6598 87.4802 41.4068 87.1639 41.182 86.7927C40.4654 85.6102 40.8869 84.0564 42.0813 83.3552C43.4865 82.5714 43.9362 80.8252 43.1212 79.4639L42.1797 77.8414C41.3787 76.4802 39.6222 75.9989 38.2311 76.7964C36.9945 77.4564 35.4067 77.0164 34.69 75.8477C34.4652 75.4627 34.3387 75.0502 34.3668 74.6377C34.409 74.1014 34.2404 73.5927 33.9874 73.1802C33.4675 72.3277 32.526 71.7502 31.4862 71.7502H29.5049C28.4791 71.7777 27.5376 72.3277 27.0177 73.1802C26.7507 73.5927 26.5961 74.1014 26.6242 74.6377C26.6523 75.0502 26.5259 75.4627 26.301 75.8477C25.5844 77.0164 23.9965 77.4564 22.774 76.7964C21.3688 75.9989 19.6264 76.4802 18.8114 77.8414L17.8699 79.4639C17.0689 80.8252 17.5186 82.5714 18.9097 83.3552C20.1041 84.0564 20.5257 85.6102 19.8231 86.7927C19.5842 87.1639 19.3313 87.4802 18.9378 87.6727C18.4601 87.9339 18.0385 88.3464 17.8137 88.7589C17.2938 89.6114 17.3219 90.6839 17.8418 91.5777L18.8114 93.2277C19.3313 94.1077 20.3009 94.6577 21.3126 94.6577C21.7904 94.6577 22.3524 94.5202 22.8021 94.2452C23.1534 94.0114 23.575 93.9289 24.0387 93.9289C25.4298 93.9289 26.5961 95.0702 26.6242 96.4314C26.6242 98.0127 27.917 99.2502 29.547 99.2502H31.4581C33.0741 99.2502 34.3668 98.0127 34.3668 96.4314C34.409 95.0702 35.5753 93.9289 36.9664 93.9289C37.4161 93.9289 37.8377 94.0114 38.203 94.2452C38.6527 94.5202 39.2007 94.6577 39.6925 94.6577C40.6902 94.6577 41.6598 94.1077 42.1797 93.2277L43.1633 91.5777C43.6692 90.6564 43.7114 89.6114 43.1914 88.7589" fill="white"/>
<g opacity="0.4">
<path d="M26.9154 10.0093L30.6021 6.30876C30.8591 6.05076 31 5.70884 31 5.34671C31 4.98458 30.8591 4.64266 30.6021 4.38466C30.0895 3.87178 29.1992 3.87178 28.6867 4.38466L25 8.08676L21.3117 4.38466C20.7992 3.87178 19.9089 3.87178 19.3964 4.38466C19.1409 4.64266 19 4.98458 19 5.34671C19 5.70884 19.1409 6.05076 19.3964 6.30876L23.0831 10.0093L19.3964 13.7098C19.1409 13.9678 19 14.3098 19 14.6719C19 15.034 19.1409 15.3759 19.3964 15.6339C19.9089 16.1468 20.7992 16.1468 21.3117 15.6339L25 11.9318L28.6867 15.6339C28.9437 15.8904 29.2828 16.0318 29.6452 16.0318C30.0075 16.0318 30.3466 15.8904 30.6021 15.6339C30.8591 15.3759 31 15.034 31 14.6719C31 14.3098 30.8591 13.9678 30.6021 13.7098L26.9154 10.0093Z" fill="#FF725E"/>
<path d="M26.9154 10.0093L30.6021 6.30876C30.8591 6.05076 31 5.70884 31 5.34671C31 4.98458 30.8591 4.64266 30.6021 4.38466C30.0895 3.87178 29.1992 3.87178 28.6867 4.38466L25 8.08676L21.3117 4.38466C20.7992 3.87178 19.9089 3.87178 19.3964 4.38466C19.1409 4.64266 19 4.98458 19 5.34671C19 5.70884 19.1409 6.05076 19.3964 6.30876L23.0831 10.0093L19.3964 13.7098C19.1409 13.9678 19 14.3098 19 14.6719C19 15.034 19.1409 15.3759 19.3964 15.6339C19.9089 16.1468 20.7992 16.1468 21.3117 15.6339L25 11.9318L28.6867 15.6339C28.9437 15.8904 29.2828 16.0318 29.6452 16.0318C30.0075 16.0318 30.3466 15.8904 30.6021 15.6339C30.8591 15.3759 31 15.034 31 14.6719C31 14.3098 30.8591 13.9678 30.6021 13.7098L26.9154 10.0093Z" fill="#FF725E"/>
</g>
<g opacity="0.4">
<path d="M157.915 21.0093L161.602 17.3088C161.859 17.0508 162 16.7088 162 16.3467C162 15.9846 161.859 15.6427 161.602 15.3847C161.09 14.8718 160.199 14.8718 159.687 15.3847L156 19.0868L152.312 15.3847C151.799 14.8718 150.909 14.8718 150.396 15.3847C150.141 15.6427 150 15.9846 150 16.3467C150 16.7088 150.141 17.0508 150.396 17.3088L154.083 21.0093L150.396 24.7098C150.141 24.9678 150 25.3098 150 25.6719C150 26.034 150.141 26.3759 150.396 26.6339C150.909 27.1468 151.799 27.1468 152.312 26.6339L156 22.9318L159.687 26.6339C159.944 26.8904 160.283 27.0318 160.645 27.0318C161.007 27.0318 161.347 26.8904 161.602 26.6339C161.859 26.3759 162 26.034 162 25.6719C162 25.3098 161.859 24.9678 161.602 24.7098L157.915 21.0093Z" fill="#FF725E"/>
<path d="M157.915 21.0093L161.602 17.3088C161.859 17.0508 162 16.7088 162 16.3467C162 15.9846 161.859 15.6427 161.602 15.3847C161.09 14.8718 160.199 14.8718 159.687 15.3847L156 19.0868L152.312 15.3847C151.799 14.8718 150.909 14.8718 150.396 15.3847C150.141 15.6427 150 15.9846 150 16.3467C150 16.7088 150.141 17.0508 150.396 17.3088L154.083 21.0093L150.396 24.7098C150.141 24.9678 150 25.3098 150 25.6719C150 26.034 150.141 26.3759 150.396 26.6339C150.909 27.1468 151.799 27.1468 152.312 26.6339L156 22.9318L159.687 26.6339C159.944 26.8904 160.283 27.0318 160.645 27.0318C161.007 27.0318 161.347 26.8904 161.602 26.6339C161.859 26.3759 162 26.034 162 25.6719C162 25.3098 161.859 24.9678 161.602 24.7098L157.915 21.0093Z" fill="#FF725E"/>
</g>
<g opacity="0.4">
<path d="M147.626 84.512L149.781 82.3493C149.931 82.1985 150.013 81.9987 150.013 81.7871C150.013 81.5754 149.931 81.3756 149.781 81.2248C149.481 80.9251 148.961 80.9251 148.661 81.2248L146.507 83.3884L144.351 81.2248C144.052 80.9251 143.531 80.9251 143.232 81.2248C143.082 81.3756 143 81.5754 143 81.7871C143 81.9987 143.082 82.1985 143.232 82.3493L145.386 84.512L143.232 86.6748C143.082 86.8255 143 87.0254 143 87.237C143 87.4487 143.082 87.6485 143.232 87.7993C143.531 88.099 144.052 88.099 144.351 87.7993L146.507 85.6356L148.661 87.7993C148.811 87.9491 149.01 88.0318 149.221 88.0318C149.433 88.0318 149.631 87.9491 149.781 87.7993C149.931 87.6485 150.013 87.4487 150.013 87.237C150.013 87.0254 149.931 86.8255 149.781 86.6748L147.626 84.512Z" fill="#FF725E"/>
<path d="M147.626 84.512L149.781 82.3493C149.931 82.1985 150.013 81.9987 150.013 81.7871C150.013 81.5754 149.931 81.3756 149.781 81.2248C149.481 80.9251 148.961 80.9251 148.661 81.2248L146.507 83.3884L144.351 81.2248C144.052 80.9251 143.531 80.9251 143.232 81.2248C143.082 81.3756 143 81.5754 143 81.7871C143 81.9987 143.082 82.1985 143.232 82.3493L145.386 84.512L143.232 86.6748C143.082 86.8255 143 87.0254 143 87.237C143 87.4487 143.082 87.6485 143.232 87.7993C143.531 88.099 144.052 88.099 144.351 87.7993L146.507 85.6356L148.661 87.7993C148.811 87.9491 149.01 88.0318 149.221 88.0318C149.433 88.0318 149.631 87.9491 149.781 87.7993C149.931 87.6485 150.013 87.4487 150.013 87.237C150.013 87.0254 149.931 86.8255 149.781 86.6748L147.626 84.512Z" fill="#FF725E"/>
</g>
<g opacity="0.4">
<path d="M147.626 84.512L149.781 82.3493C149.931 82.1985 150.013 81.9987 150.013 81.7871C150.013 81.5754 149.931 81.3756 149.781 81.2248C149.481 80.9251 148.961 80.9251 148.661 81.2248L146.507 83.3884L144.351 81.2248C144.052 80.9251 143.531 80.9251 143.232 81.2248C143.082 81.3756 143 81.5754 143 81.7871C143 81.9987 143.082 82.1985 143.232 82.3493L145.386 84.512L143.232 86.6748C143.082 86.8255 143 87.0254 143 87.237C143 87.4487 143.082 87.6485 143.232 87.7993C143.531 88.099 144.052 88.099 144.351 87.7993L146.507 85.6356L148.661 87.7993C148.811 87.9491 149.01 88.0318 149.221 88.0318C149.433 88.0318 149.631 87.9491 149.781 87.7993C149.931 87.6485 150.013 87.4487 150.013 87.237C150.013 87.0254 149.931 86.8255 149.781 86.6748L147.626 84.512Z" fill="#FF725E"/>
<path d="M147.626 84.512L149.781 82.3493C149.931 82.1985 150.013 81.9987 150.013 81.7871C150.013 81.5754 149.931 81.3756 149.781 81.2248C149.481 80.9251 148.961 80.9251 148.661 81.2248L146.507 83.3884L144.351 81.2248C144.052 80.9251 143.531 80.9251 143.232 81.2248C143.082 81.3756 143 81.5754 143 81.7871C143 81.9987 143.082 82.1985 143.232 82.3493L145.386 84.512L143.232 86.6748C143.082 86.8255 143 87.0254 143 87.237C143 87.4487 143.082 87.6485 143.232 87.7993C143.531 88.099 144.052 88.099 144.351 87.7993L146.507 85.6356L148.661 87.7993C148.811 87.9491 149.01 88.0318 149.221 88.0318C149.433 88.0318 149.631 87.9491 149.781 87.7993C149.931 87.6485 150.013 87.4487 150.013 87.237C150.013 87.0254 149.931 86.8255 149.781 86.6748L147.626 84.512Z" fill="#FF725E"/>
</g>
<g opacity="0.4">
<path d="M147.626 84.512L149.781 82.3493C149.931 82.1985 150.013 81.9987 150.013 81.7871C150.013 81.5754 149.931 81.3756 149.781 81.2248C149.481 80.9251 148.961 80.9251 148.661 81.2248L146.507 83.3884L144.351 81.2248C144.052 80.9251 143.531 80.9251 143.232 81.2248C143.082 81.3756 143 81.5754 143 81.7871C143 81.9987 143.082 82.1985 143.232 82.3493L145.386 84.512L143.232 86.6748C143.082 86.8255 143 87.0254 143 87.237C143 87.4487 143.082 87.6485 143.232 87.7993C143.531 88.099 144.052 88.099 144.351 87.7993L146.507 85.6356L148.661 87.7993C148.811 87.9491 149.01 88.0318 149.221 88.0318C149.433 88.0318 149.631 87.9491 149.781 87.7993C149.931 87.6485 150.013 87.4487 150.013 87.237C150.013 87.0254 149.931 86.8255 149.781 86.6748L147.626 84.512Z" fill="#FF725E"/>
<path d="M147.626 84.512L149.781 82.3493C149.931 82.1985 150.013 81.9987 150.013 81.7871C150.013 81.5754 149.931 81.3756 149.781 81.2248C149.481 80.9251 148.961 80.9251 148.661 81.2248L146.507 83.3884L144.351 81.2248C144.052 80.9251 143.531 80.9251 143.232 81.2248C143.082 81.3756 143 81.5754 143 81.7871C143 81.9987 143.082 82.1985 143.232 82.3493L145.386 84.512L143.232 86.6748C143.082 86.8255 143 87.0254 143 87.237C143 87.4487 143.082 87.6485 143.232 87.7993C143.531 88.099 144.052 88.099 144.351 87.7993L146.507 85.6356L148.661 87.7993C148.811 87.9491 149.01 88.0318 149.221 88.0318C149.433 88.0318 149.631 87.9491 149.781 87.7993C149.931 87.6485 150.013 87.4487 150.013 87.237C150.013 87.0254 149.931 86.8255 149.781 86.6748L147.626 84.512Z" fill="#FF725E"/>
</g>
<g opacity="0.4">
<path d="M147.626 84.512L149.781 82.3493C149.931 82.1985 150.013 81.9987 150.013 81.7871C150.013 81.5754 149.931 81.3756 149.781 81.2248C149.481 80.9251 148.961 80.9251 148.661 81.2248L146.507 83.3884L144.351 81.2248C144.052 80.9251 143.531 80.9251 143.232 81.2248C143.082 81.3756 143 81.5754 143 81.7871C143 81.9987 143.082 82.1985 143.232 82.3493L145.386 84.512L143.232 86.6748C143.082 86.8255 143 87.0254 143 87.237C143 87.4487 143.082 87.6485 143.232 87.7993C143.531 88.099 144.052 88.099 144.351 87.7993L146.507 85.6356L148.661 87.7993C148.811 87.9491 149.01 88.0318 149.221 88.0318C149.433 88.0318 149.631 87.9491 149.781 87.7993C149.931 87.6485 150.013 87.4487 150.013 87.237C150.013 87.0254 149.931 86.8255 149.781 86.6748L147.626 84.512Z" fill="#FF725E"/>
<path d="M147.626 84.512L149.781 82.3493C149.931 82.1985 150.013 81.9987 150.013 81.7871C150.013 81.5754 149.931 81.3756 149.781 81.2248C149.481 80.9251 148.961 80.9251 148.661 81.2248L146.507 83.3884L144.351 81.2248C144.052 80.9251 143.531 80.9251 143.232 81.2248C143.082 81.3756 143 81.5754 143 81.7871C143 81.9987 143.082 82.1985 143.232 82.3493L145.386 84.512L143.232 86.6748C143.082 86.8255 143 87.0254 143 87.237C143 87.4487 143.082 87.6485 143.232 87.7993C143.531 88.099 144.052 88.099 144.351 87.7993L146.507 85.6356L148.661 87.7993C148.811 87.9491 149.01 88.0318 149.221 88.0318C149.433 88.0318 149.631 87.9491 149.781 87.7993C149.931 87.6485 150.013 87.4487 150.013 87.237C150.013 87.0254 149.931 86.8255 149.781 86.6748L147.626 84.512Z" fill="#FF725E"/>
</g>
<g opacity="0.4">
<path d="M21.626 48.512L23.7806 46.3493C23.9309 46.1985 24.0132 45.9987 24.0132 45.7871C24.0132 45.5754 23.9309 45.3756 23.7806 45.2248C23.4811 44.9251 22.9608 44.9251 22.6612 45.2248L20.5066 47.3884L18.3511 45.2248C18.0515 44.9251 17.5312 44.9251 17.2317 45.2248C17.0823 45.3756 17 45.5754 17 45.7871C17 45.9987 17.0823 46.1985 17.2317 46.3493L19.3863 48.512L17.2317 50.6748C17.0823 50.8255 17 51.0254 17 51.237C17 51.4487 17.0823 51.6485 17.2317 51.7993C17.5312 52.099 18.0515 52.099 18.3511 51.7993L20.5066 49.6356L22.6612 51.7993C22.8115 51.9491 23.0096 52.0318 23.2214 52.0318C23.4332 52.0318 23.6313 51.9491 23.7806 51.7993C23.9309 51.6485 24.0132 51.4487 24.0132 51.237C24.0132 51.0254 23.9309 50.8255 23.7806 50.6748L21.626 48.512Z" fill="#FF725E"/>
<path d="M21.626 48.512L23.7806 46.3493C23.9309 46.1985 24.0132 45.9987 24.0132 45.7871C24.0132 45.5754 23.9309 45.3756 23.7806 45.2248C23.4811 44.9251 22.9608 44.9251 22.6612 45.2248L20.5066 47.3884L18.3511 45.2248C18.0515 44.9251 17.5312 44.9251 17.2317 45.2248C17.0823 45.3756 17 45.5754 17 45.7871C17 45.9987 17.0823 46.1985 17.2317 46.3493L19.3863 48.512L17.2317 50.6748C17.0823 50.8255 17 51.0254 17 51.237C17 51.4487 17.0823 51.6485 17.2317 51.7993C17.5312 52.099 18.0515 52.099 18.3511 51.7993L20.5066 49.6356L22.6612 51.7993C22.8115 51.9491 23.0096 52.0318 23.2214 52.0318C23.4332 52.0318 23.6313 51.9491 23.7806 51.7993C23.9309 51.6485 24.0132 51.4487 24.0132 51.237C24.0132 51.0254 23.9309 50.8255 23.7806 50.6748L21.626 48.512Z" fill="#FF725E"/>
</g>
</svg>
