<svg width="17" height="20" viewBox="0 0 17 20" fill="none" xmlns="http://www.w3.org/2000/svg">
<path fill-rule="evenodd" clip-rule="evenodd" d="M4.2688 6.71384H12.7312C15.0886 6.71384 17 8.58304 17 10.8885V15.8253C17 18.1308 15.0886 20 12.7312 20H4.2688C1.91136 20 0 18.1308 0 15.8253V10.8885C0 8.58304 1.91136 6.71384 4.2688 6.71384ZM8.49492 15.3295C8.99283 15.3295 9.38912 14.9419 9.38912 14.455V12.2489C9.38912 11.7719 8.99283 11.3844 8.49492 11.3844C8.00717 11.3844 7.61088 11.7719 7.61088 12.2489V14.455C7.61088 14.9419 8.00717 15.3295 8.49492 15.3295Z" fill="#012966"/>
<path opacity="0.4" d="M14.023 5.39595V6.86667C13.6673 6.7673 13.2913 6.71761 12.9052 6.71761H12.2447V5.39595C12.2447 3.37868 10.5681 1.73903 8.50533 1.73903C6.44257 1.73903 4.76594 3.36874 4.75578 5.37608V6.71761H4.10545C3.70916 6.71761 3.33319 6.7673 2.97754 6.87661V5.39595C2.9877 2.41476 5.45692 0 8.48501 0C11.5537 0 14.023 2.41476 14.023 5.39595" fill="#012966"/>
</svg>
