<svg width="166" height="116" viewBox="0 0 166 116" fill="none" xmlns="http://www.w3.org/2000/svg">
<ellipse cx="70" cy="101.5" rx="64" ry="14.5" fill="#7A9ACC" fill-opacity="0.5"/>
<rect x="31" y="44.5592" width="71.4284" height="53" rx="7" transform="rotate(-38.5964 31 44.5592)" fill="#ADB5BD"/>
<rect x="38.645" y="54.1375" width="71.4284" height="40.7447" transform="rotate(-38.5964 38.645 54.1375)" fill="#CED6DE"/>
<rect x="38" y="42.094" width="84" height="53" rx="7" transform="rotate(-24.6949 38 42.094)" fill="#E0E0E0"/>
<path d="M43.1138 53.2145L119.432 18.1205L130 41.5L60.1427 90.2469L43.1138 53.2145Z" fill="#D1D0D0"/>
<rect x="30" y="28" width="102" height="72" rx="11.9337" fill="#012966"/>
<rect x="90" y="51" width="54" height="27" rx="13.5" fill="#1658BF"/>
<circle cx="104.5" cy="64.5" r="9.5" fill="#012966" fill-opacity="0.5"/>
<rect x="101.028" y="15.1767" width="11.6181" height="6" rx="3" transform="rotate(-26.46 101.028 15.1767)" fill="#C4C4C4"/>
<rect x="76.2021" y="11.7888" width="12.0321" height="6" rx="3" transform="rotate(-39.5666 76.2021 11.7888)" fill="#CED6DE"/>
<path d="M153.328 23.3958C149.8 32.4671 148.128 33.602 138.396 33.536C147.467 37.0638 148.602 38.735 148.536 48.4678C152.064 39.3966 153.735 38.2617 163.468 38.3277C154.396 34.7999 153.261 33.1287 153.328 23.3958Z" fill="#012966"/>
<path d="M48.0364 13.9343C48.0041 17.786 47.545 18.4405 43.9344 19.782C47.786 19.8143 48.4405 20.2734 49.7821 23.884C49.8143 20.0324 50.2734 19.3779 53.8841 18.0364C50.0324 18.0041 49.3779 17.545 48.0364 13.9343Z" fill="#012966"/>
<path d="M20.9748 58.8729C20.9426 62.7245 20.4834 63.379 16.8728 64.7205C20.7245 64.7528 21.379 65.2119 22.7205 68.8225C22.7528 64.9709 23.2119 64.3164 26.8225 62.9749C22.9709 62.9426 22.3163 62.4835 20.9748 58.8729Z" fill="#012966"/>
<path d="M10.015 6.54652C12.8927 14.0189 12.5043 15.6352 6.54656 20.9851C14.0189 18.1076 15.6353 18.4958 20.9851 24.4536C18.1075 16.9812 18.4958 15.3649 24.4535 10.0151C16.9811 12.8927 15.365 12.5043 10.015 6.54652Z" fill="#012966"/>
<circle cx="31" cy="85" r="31" fill="#14D1A4"/>
<rect x="14.0859" y="81.3474" width="25.0139" height="8.24302" rx="4.12151" transform="rotate(38.0964 14.0859 81.3474)" fill="white"/>
<rect x="22.0972" y="98.1275" width="37.6743" height="8.52657" rx="4.26329" transform="rotate(-51.3896 22.0972 98.1275)" fill="white"/>
</svg>
