<svg width="158" height="116" viewBox="0 0 158 116" fill="none" xmlns="http://www.w3.org/2000/svg">
<ellipse cx="70" cy="101.5" rx="64" ry="14.5" fill="#7A9ACC" fill-opacity="0.5"/>
<rect x="31" y="44.5592" width="71.4284" height="53" rx="7" transform="rotate(-38.5964 31 44.5592)" fill="#ADB5BD"/>
<rect x="38.645" y="54.1375" width="71.4284" height="40.7447" transform="rotate(-38.5964 38.645 54.1375)" fill="#CED6DE"/>
<rect x="38" y="42.094" width="84" height="53" rx="7" transform="rotate(-24.6949 38 42.094)" fill="#E0E0E0"/>
<path d="M43.1138 53.2145L119.432 18.1205L130 41.5L60.1427 90.2469L43.1138 53.2145Z" fill="#D1D0D0"/>
<rect x="30" y="28" width="102" height="72" rx="11.9337" fill="#012966"/>
<rect x="90" y="51" width="54" height="27" rx="13.5" fill="#1658BF"/>
<circle cx="104.5" cy="64.5" r="9.5" fill="#012966" fill-opacity="0.5"/>
<rect x="101.028" y="15.1767" width="11.6181" height="6" rx="3" transform="rotate(-26.46 101.028 15.1767)" fill="#C4C4C4"/>
<rect x="76.2021" y="11.7888" width="12.0321" height="6" rx="3" transform="rotate(-39.5666 76.2021 11.7888)" fill="#CED6DE"/>
<path d="M20.9748 58.8729C20.9426 62.7245 20.4834 63.379 16.8728 64.7205C20.7245 64.7528 21.379 65.2119 22.7205 68.8225C22.7528 64.9709 23.2119 64.3164 26.8225 62.9749C22.9709 62.9426 22.3163 62.4835 20.9748 58.8729Z" fill="#012966"/>
<circle cx="31" cy="85" r="31" fill="#F5C371"/>
<path d="M41.6927 85.8604C40.7187 84.7231 40.2761 83.7374 40.2761 82.0629V81.4935C40.2761 79.3114 39.7739 77.9054 38.6819 76.4995C36.999 74.316 34.1658 73 31.3923 73H31.2744C28.5591 73 25.8148 74.2556 24.1027 76.3504C22.9511 77.7846 22.3906 79.251 22.3906 81.4935V82.0629C22.3906 83.7374 21.9771 84.7231 20.974 85.8604C20.2359 86.6984 20 87.7753 20 88.9409C20 90.1079 20.383 91.213 21.1516 92.1114C22.1547 93.1884 23.5713 93.8759 25.0183 93.9954C27.1134 94.2344 29.2085 94.3244 31.334 94.3244C33.4582 94.3244 35.5533 94.174 37.6497 93.9954C39.0954 93.8759 40.512 93.1884 41.5151 92.1114C42.2824 91.213 42.6667 90.1079 42.6667 88.9409C42.6667 87.7753 42.4308 86.6984 41.6927 85.8604" fill="white"/>
<path opacity="0.4" d="M34.0118 95.9711C33.3453 95.8288 29.2837 95.8288 28.6172 95.9711C28.0473 96.1027 27.4312 96.4089 27.4312 97.0803C27.4643 97.7209 27.8393 98.2862 28.3588 98.6447L28.3574 98.6461C29.0293 99.1698 29.8177 99.5028 30.6433 99.6223C31.0833 99.6828 31.5312 99.6801 31.987 99.6223C32.8113 99.5028 33.5997 99.1698 34.2716 98.6461L34.2702 98.6447C34.7897 98.2862 35.1647 97.7209 35.1978 97.0803C35.1978 96.4089 34.5817 96.1027 34.0118 95.9711" fill="white"/>
<path fill-rule="evenodd" clip-rule="evenodd" d="M17.4528 8.6453C13.8163 8.87155 11.9159 10.9309 11.75 14.655H15.4184C15.4644 13.365 16.1844 12.4006 17.525 12.2584C18.8409 12.1187 20.0894 12.4322 20.4675 13.3319C20.8759 14.3037 19.9591 15.4331 19.5231 15.9072C18.7163 16.7862 17.4056 17.4275 16.7262 18.3759C16.0603 19.3053 15.9419 20.5281 15.8906 22.0247H19.1238C19.1691 21.0678 19.2328 20.1512 19.6681 19.5566C20.3763 18.5903 21.4338 18.1375 22.32 17.3744C23.1666 16.645 24.0572 15.7659 24.2084 14.4053C24.6625 10.3331 21.3384 8.4028 17.4528 8.6453Z" fill="#F5C371"/>
<path d="M17.5359 27.375C18.6632 27.375 19.5771 26.4749 19.5771 25.3647C19.5771 24.2544 18.6632 23.3544 17.5359 23.3544C16.4085 23.3544 15.4946 24.2544 15.4946 25.3647C15.4946 26.4749 16.4085 27.375 17.5359 27.375Z" fill="#F5C371"/>
<path fill-rule="evenodd" clip-rule="evenodd" d="M147.453 34.6453C143.816 34.8716 141.916 36.9309 141.75 40.655H145.418C145.464 39.365 146.184 38.4006 147.525 38.2584C148.841 38.1187 150.089 38.4322 150.467 39.3319C150.876 40.3037 149.959 41.4331 149.523 41.9072C148.716 42.7862 147.406 43.4275 146.726 44.3759C146.06 45.3053 145.942 46.5281 145.891 48.0247H149.124C149.169 47.0678 149.233 46.1512 149.668 45.5566C150.376 44.5903 151.434 44.1375 152.32 43.3744C153.167 42.645 154.057 41.7659 154.208 40.4053C154.663 36.3331 151.338 34.4028 147.453 34.6453Z" fill="#F5C371"/>
<path d="M147.536 53.375C148.663 53.375 149.577 52.4749 149.577 51.3647C149.577 50.2544 148.663 49.3544 147.536 49.3544C146.409 49.3544 145.495 50.2544 145.495 51.3647C145.495 52.4749 146.409 53.375 147.536 53.375Z" fill="#F5C371"/>
<path fill-rule="evenodd" clip-rule="evenodd" d="M127.672 4.38718C125.49 4.52293 124.35 5.75856 124.25 7.99299H126.451C126.479 7.21899 126.911 6.64037 127.715 6.55506C128.505 6.47124 129.254 6.65931 129.48 7.19912C129.726 7.78224 129.175 8.45987 128.914 8.74431C128.43 9.27174 127.643 9.65649 127.236 10.2256C126.836 10.7832 126.765 11.5169 126.734 12.4148H128.674C128.701 11.8407 128.74 11.2907 129.001 10.9339C129.426 10.3542 130.06 10.0825 130.592 9.62462C131.1 9.18699 131.634 8.65956 131.725 7.84318C131.998 5.39987 130.003 4.24168 127.672 4.38718Z" fill="#F5C371"/>
<path d="M127.721 15.625C128.398 15.625 128.946 15.085 128.946 14.4188C128.946 13.7526 128.398 13.2126 127.721 13.2126C127.045 13.2126 126.497 13.7526 126.497 14.4188C126.497 15.085 127.045 15.625 127.721 15.625Z" fill="#F5C371"/>
<path fill-rule="evenodd" clip-rule="evenodd" d="M5.67169 49.3872C3.48975 49.5229 2.34956 50.7586 2.25 52.993H4.45106C4.47863 52.219 4.91062 51.6404 5.715 51.5551C6.50456 51.4712 7.25362 51.6593 7.4805 52.1991C7.72556 52.7822 7.17544 53.4599 6.91388 53.7443C6.42975 54.2717 5.64337 54.6565 5.23575 55.2256C4.83619 55.7832 4.76513 56.5169 4.73438 57.4148H6.67425C6.70144 56.8407 6.73969 56.2907 7.00088 55.9339C7.42575 55.3542 8.06025 55.0825 8.592 54.6246C9.09994 54.187 9.63431 53.6596 9.72506 52.8432C9.9975 50.3999 8.00306 49.2417 5.67169 49.3872Z" fill="#F5C371"/>
<path d="M5.72133 60.625C6.39774 60.625 6.94608 60.085 6.94608 59.4188C6.94608 58.7526 6.39774 58.2126 5.72133 58.2126C5.04492 58.2126 4.49658 58.7526 4.49658 59.4188C4.49658 60.085 5.04492 60.625 5.72133 60.625Z" fill="#F5C371"/>
</svg>
