<svg width="18" height="20" viewBox="0 0 18 20" fill="none" xmlns="http://www.w3.org/2000/svg">
<path opacity="0.4" d="M5.23918 6.70907V5.36726C5.24934 3.37044 6.92597 1.73939 8.99889 1.73939C10.5841 1.73939 12.0067 2.72339 12.5249 4.19541C12.6976 4.65262 13.2057 4.89017 13.663 4.73213C13.8865 4.66156 14.0694 4.50253 14.171 4.29381C14.2727 4.08508 14.293 3.84654 14.2117 3.62787C13.4394 1.46208 11.3462 0 8.97857 0C5.95048 0 3.48126 2.41626 3.46094 5.38714V6.91084L5.23918 6.70907Z" fill="#012966"/>
<path fill-rule="evenodd" clip-rule="evenodd" d="M4.7688 6.71106H13.2312C15.5886 6.71106 17.5 8.58066 17.5 10.8866V15.8245C17.5 18.1304 15.5886 20 13.2312 20H4.7688C2.41136 20 0.5 18.1304 0.5 15.8245V10.8866C0.5 8.58066 2.41136 6.71106 4.7688 6.71106ZM8.99492 15.3285C9.49283 15.3285 9.88912 14.9409 9.88912 14.4538V12.2473C9.88912 11.7702 9.49283 11.3826 8.99492 11.3826C8.50717 11.3826 8.11088 11.7702 8.11088 12.2473V14.4538C8.11088 14.9409 8.50717 15.3285 8.99492 15.3285Z" fill="#012966"/>
</svg>
